<?xml version="1.0" encoding="UTF-8"?>
<svg width="201px" height="37px" viewBox="0 0 201 37" version="1.1" xmlns="http://www.w3.org/2000/svg" xmlns:xlink="http://www.w3.org/1999/xlink">
    <!-- Generator: Sketch 55 (78076) - https://sketchapp.com -->
    <title>logo</title>
    <desc>Created with Sketch.</desc>
    <g id="Page-1" stroke="none" stroke-width="1" fill="none" fill-rule="evenodd">
        <g id="home2" transform="translate(-860.000000, -36.000000)">
            <g id="menu" transform="translate(374.000000, 34.000000)">
                <g id="logo" transform="translate(486.000000, 2.000000)">
                    <polygon id="Fill-1" fill="#000000" points="0 1.72093023 0 2.56424408 3.31563955 2.56424408 3.31563955 25.8099128 0 25.8099128 0 26.6744186 10.3519313 26.6744186 10.3519313 25.8099128 7.04464919 25.8099128 7.04464919 2.56424408 10.3519313 2.56424408 10.3519313 1.72093023"></polygon>
                    <g id="Group-32" transform="translate(11.214592, 0.000000)">
                        <path d="M2.29028848,25.9077763 L0.192510207,25.9077763 L0.192510207,26.7775898 L7.29789844,26.7775898 L7.29789844,25.9077763 L5.25429931,25.9077763 L5.25429931,18.9201068 C5.25429931,16.0987 7.22217438,12.6056492 9.8066144,12.6056492 C11.3188778,12.6056492 12.1987343,13.0220559 12.1987343,15.7653864 L12.1987343,25.9077763 L10.2292751,25.9077763 L10.2292751,26.7775898 L17.2095126,26.7775898 L17.2095126,25.9077763 L15.1681314,25.9077763 L15.1681314,15.2696492 C15.1681314,11.817361 11.9921565,11.5138356 10.6313413,11.5138356 C7.87137355,11.5138356 6.39047706,13.1258441 5.32020142,15.4950983 L5.25429931,15.4950983 L5.25429931,11.5138356 C4.5620103,11.6731237 3.84215647,11.7816153 3.12768887,11.817361 C2.44205344,11.8813271 1.70794193,11.8813271 0.998226887,11.8813271 L0.192510207,11.8813271 L0.192510207,12.7592932 L2.29028848,12.7592932 L2.29028848,25.9077763 Z" id="Fill-2" fill="#000000"></path>
                        <path d="M29.8668686,22.1086288 C28.9493085,24.8133915 26.8271337,26.5897051 24.6222645,26.4671034 C22.6445675,26.3523407 21.4744882,25.5812983 20.908934,24.3396034 C20.6700389,23.8056119 20.1032173,22.0779 20.1032173,19.8221542 C20.1032173,14.8945695 21.0603821,12.2612983 24.6979886,12.2612983 C25.5350721,12.2612983 27.9268752,12.6789593 27.9268752,13.6958322 C27.9268752,14.1047136 26.7152902,14.2994339 26.7152902,15.7656373 C26.7152902,16.8471034 27.4782339,17.5262729 28.5041524,17.5262729 C29.5630219,17.5262729 30.2226767,16.5526712 30.2226767,15.5357983 C30.2226767,12.6413322 26.7152902,11.5137729 24.2480799,11.5137729 C22.0828154,11.5137729 16.6506437,13.1260949 16.6506437,19.8221542 C16.6506437,22.4043153 18.4366543,27.2622898 24.3165168,27.2622898 C28.2776139,27.1058237 29.798115,24.7795271 30.6646644,22.1086288 L29.8668686,22.1086288 Z" id="Fill-4" fill="#000000"></path>
                        <path d="M35.8094014,11.5137729 C34.427675,11.8605695 32.9499468,11.8812644 31.5425565,11.8812644 L30.3705762,11.8812644 L30.3705762,12.7595441 L32.9499468,12.7595441 L32.9499468,25.9077136 L30.3705762,25.9077136 L30.3705762,26.7778407 L38.8336113,26.7778407 L38.8336113,25.9077136 L35.9088883,25.9077136 L35.9088883,18.7704763 C35.9088883,17.2534763 36.3248954,15.8070271 36.8559143,14.7136458 C37.6838096,13.0223068 38.9777722,12.4867475 39.0205452,12.4867475 C39.1374581,12.4867475 39.3731849,12.4867475 39.3731849,12.7109424 C39.3731849,12.8642729 39.2081127,13.2026034 39.2081127,13.5067559 C39.2081127,14.2508322 40.006859,15.0171712 40.6943955,15.0171712 C41.4883892,15.0171712 42.474703,14.556239 42.474703,13.6193237 C42.474703,12.1907475 41.4611412,11.5137729 40.1529209,11.5137729 C38.0725687,11.5137729 36.5580874,13.356561 35.8692836,15.0453915 L35.8094014,15.0453915 L35.8094014,11.5137729 Z" id="Fill-6" fill="#000000"></path>
                        <path d="M45.5144062,17.1045356 C45.5521098,16.1820441 45.6661711,15.3037644 45.8857392,14.6299254 C45.9785725,14.3778237 46.9870649,12.2612983 49.2695592,12.2612983 C51.1680469,12.2612983 52.7626879,13.1260949 52.7626879,15.8393237 L52.7626879,17.1045356 L45.5144062,17.1045356 Z M55.3455438,22.1086288 C54.814208,24.596722 52.2712736,26.4671034 50.1110785,26.4671034 C45.9785725,26.4671034 45.4903266,23.4707305 45.4903266,19.7475271 L45.4903266,18.1988576 L56.2200141,18.1988576 C56.1785084,14.1047136 53.2626568,11.5137729 49.3741154,11.5137729 C44.865207,11.5137729 41.9059487,15.5712305 41.9059487,20.0109169 C41.9059487,24.1784339 45.6265665,27.2622898 49.5027513,27.2622898 C52.8333426,27.2622898 55.4212678,25.6135949 56.1785084,22.1086288 L55.3455438,22.1086288 Z" id="Fill-8" fill="#000000"></path>
                        <path d="M71.8539593,25.9077763 L71.8539593,0.539259322 C70.5029661,0.803276271 69.0204854,0.884174576 67.6248181,0.884174576 L66.3568361,0.884174576 L66.3568361,1.74803051 L68.9083251,1.74803051 L68.9083251,14.3778864 L68.8395714,14.3778864 C67.6954727,12.0785559 65.4820489,11.5138356 64.2790186,11.5138356 C59.7577535,11.5138356 57.217037,15.121022 57.217037,19.3393356 C57.217037,23.6118949 60.0692044,27.262039 63.8927942,27.262039 C66.0659797,27.262039 67.8085836,26.3524034 68.8706215,24.5497508 L68.9517317,24.5497508 L68.9517317,27.0717085 C70.6113243,26.8152169 72.2797884,26.7775898 73.9536386,26.7775898 L73.9536386,25.9077763 L71.8539593,25.9077763 Z M68.7980658,16.2209881 C69.0204854,16.9609881 69.0493176,18.6846237 69.0493176,19.5168102 C69.0493176,23.4350475 68.568042,24.1781831 67.1229481,25.4622085 C66.6163257,25.8748525 65.4820489,26.4671661 64.5042897,26.4671661 C61.390415,26.4671661 60.6569371,24.5497508 60.6569371,18.7702254 C60.6569371,16.0987 60.7906424,12.261361 64.3224252,12.261361 C67.8085836,12.261361 68.6386967,15.6565814 68.7980658,16.2209881 L68.7980658,16.2209881 Z" id="Fill-10" fill="#000000"></path>
                        <path d="M82.3566331,26.7777153 L82.3566331,25.9079017 L80.1159613,25.9079017 L80.1159613,11.5136475 C78.7617997,11.8607576 77.2755169,11.881139 75.8608394,11.881139 L74.6102835,11.881139 L74.6102835,12.7594186 L77.1671587,12.7594186 L77.1671587,25.9079017 L74.6102835,25.9079017 L74.6102835,26.7777153 L82.3566331,26.7777153 Z" id="Fill-12" fill="#000000"></path>
                        <path d="M88.1351711,15.9541178 C88.2058257,14.8155839 89.9569842,12.2613297 92.4637992,12.2613297 C96.1549511,12.2613297 96.302914,16.4015669 96.302914,19.2138805 C96.302914,22.2243636 96.2614083,26.4671347 92.4637992,26.4671347 C91.3228689,26.4671347 87.9415836,25.8412703 87.9415836,21.0974314 C87.9415836,20.1580076 88.0268128,16.9609568 88.1351711,15.9541178 L88.1351711,15.9541178 Z M88.0578628,0.539227966 C86.6900772,0.803558475 85.2193195,0.88414322 83.8014735,0.88414322 L82.937142,0.88414322 L82.937142,1.74799915 L85.1024066,1.74799915 L85.1024066,25.8748212 L82.937142,25.8748212 L82.937142,26.777872 C84.5992693,26.7342873 86.2385843,26.9553466 87.9067315,27.0716771 L87.9067315,24.4791686 L87.9948122,24.4791686 C88.8968474,25.9877025 90.5634104,27.2620076 92.4637992,27.2620076 C96.5262841,27.2620076 99.7478835,24.0267025 99.7478835,19.3587449 C99.7478835,15.9879822 97.7014328,11.5138042 92.4210262,11.5138042 C90.6495901,11.5138042 88.8553417,12.7978297 88.1351711,14.1470754 L88.0578628,14.1470754 L88.0578628,0.539227966 Z" id="Fill-14" fill="#000000"></path>
                        <path d="M107.891705,26.7777153 L107.891705,25.9079017 L104.967299,25.9079017 L104.967299,0.539071186 C103.602682,0.803401695 102.121152,0.8843 100.715979,0.8843 L99.0798325,0.8843 L99.0798325,1.74815593 L102.004239,1.74815593 L102.004239,25.9079017 L99.0798325,25.9079017 L99.0798325,26.7777153 L107.891705,26.7777153 Z" id="Fill-16" fill="#000000"></path>
                        <path d="M110.675182,17.1045356 C110.709718,16.1820441 110.81269,15.3037644 111.044614,14.6299254 C111.121923,14.3778237 112.149742,12.2612983 114.426533,12.2612983 C116.323754,12.2612983 117.923464,13.1260949 117.923464,15.8393237 L117.923464,17.1045356 L110.675182,17.1045356 Z M120.493963,22.1086288 C119.96136,24.596722 117.418426,26.4671034 115.266785,26.4671034 C111.121923,26.4671034 110.63431,23.4707305 110.63431,19.7475271 L110.63431,18.1988576 L121.370335,18.1988576 C121.343087,14.1047136 118.421532,11.5137729 114.532991,11.5137729 C110.017429,11.5137729 107.061972,15.5712305 107.061972,20.0109169 C107.061972,24.1784339 110.785442,27.2622898 114.653705,27.2622898 C117.99697,27.2622898 120.578242,25.6135949 121.343087,22.1086288 L120.493963,22.1086288 Z" id="Fill-18" fill="#000000"></path>
                        <path d="M134.533236,25.9077763 L132.454151,25.9077763 L132.454151,26.7775898 L139.552569,26.7775898 L139.552569,25.9077763 L137.486791,25.9077763 L137.486791,18.9201068 C137.486791,16.0987 139.46829,12.6056492 142.049562,12.6056492 C143.564993,12.6056492 144.436295,13.0220559 144.436295,15.7653864 L144.436295,25.9077763 L142.465252,25.9077763 L142.465252,26.7775898 L149.453727,26.7775898 L149.453727,25.9077763 L147.400306,25.9077763 L147.400306,15.2696492 C147.400306,11.817361 144.25253,11.5138356 142.881259,11.5138356 C140.114321,11.5138356 138.640395,13.1258441 137.571703,15.4950983 L137.486791,15.4950983 L137.486791,11.5138356 C136.804958,11.6731237 136.076549,11.7816153 135.363032,11.817361 C134.689753,11.8813271 133.960711,11.8813271 133.241174,11.8813271 L132.454151,11.8813271 L132.454151,12.7592932 L134.533236,12.7592932 L134.533236,25.9077763 Z" id="Fill-20" fill="#000000"></path>
                        <path d="M163.556652,25.9077763 L163.556652,0.539259322 C162.178411,0.803276271 160.697198,0.884174576 159.302164,0.884174576 L158.054777,0.884174576 L158.054777,1.74803051 L160.594226,1.74803051 L160.594226,14.3778864 L160.518819,14.3778864 C159.377888,12.0785559 157.169851,11.5138356 155.958266,11.5138356 C151.44207,11.5138356 148.88868,15.121022 148.88868,19.3393356 C148.88868,23.6118949 151.753204,27.262039 155.581863,27.262039 C157.745227,27.262039 159.48593,26.3524034 160.556522,24.5497508 L160.621474,24.5497508 L160.621474,27.0717085 C162.29374,26.8152169 163.976145,26.7775898 165.651262,26.7775898 L165.651262,25.9077763 L163.556652,25.9077763 Z M160.477313,16.2209881 C160.697198,16.9609881 160.743456,18.6846237 160.743456,19.5168102 C160.743456,23.4350475 160.252042,24.1781831 158.807265,25.4622085 C158.312048,25.8748525 157.169851,26.4671661 156.191458,26.4671661 C153.071246,26.4671661 152.349175,24.5497508 152.349175,18.7702254 C152.349175,16.0987 152.476543,12.261361 155.985514,12.261361 C159.48593,12.261361 160.327766,15.6565814 160.477313,16.2209881 L160.477313,16.2209881 Z" id="Fill-22" fill="#000000"></path>
                        <path d="M174.041964,26.7777153 L174.041964,25.9079017 L171.800024,25.9079017 L171.800024,11.5136475 C170.433506,11.8607576 168.955778,11.881139 167.560428,11.881139 L166.297515,11.881139 L166.297515,12.7594186 L168.838865,12.7594186 L168.838865,25.9079017 L166.297515,25.9079017 L166.297515,26.7777153 L174.041964,26.7777153 Z" id="Fill-24" fill="#000000"></path>
                        <path d="M183.754382,22.4044407 C183.754382,23.9913644 183.233819,24.3967966 182.926487,24.700322 C182.022234,25.5014661 181.214616,25.7886864 180.004932,25.7886864 C178.264229,25.7886864 177.080526,24.6680254 177.080526,22.8280593 C177.080526,19.358839 181.30745,18.9430593 183.754382,18.9201695 L183.754382,22.4044407 Z M188.861479,24.1782458 C188.679615,24.8135169 188.290856,25.8746017 187.534882,25.8746017 C186.731067,25.8746017 186.731067,25.2750763 186.731067,24.1459492 L186.731067,15.2076271 C186.731067,13.6959576 186.731067,11.5138983 181.56884,11.5138983 C177.044407,11.5138983 175.502994,13.7771695 175.502994,15.1207712 C175.502994,16.1818559 176.061261,16.9369068 177.080526,16.9369068 C178.037691,16.9369068 178.640315,16.2825085 178.640315,15.3496695 C178.640315,14.1045254 177.503187,13.9236017 177.503187,13.6191356 C177.503187,12.5357881 180.190599,12.2611102 181.03592,12.2611102 C182.38121,12.2611102 183.754382,12.7976102 183.754382,14.5563644 L183.754382,18.1281186 C177.965452,18.1281186 174.356995,20.0737542 174.238181,23.5730763 C174.238181,26.3524661 176.281463,27.2621017 178.67992,27.2621017 C180.611359,27.2621017 182.505094,26.5427966 183.804443,24.9586949 C184.070586,26.3524661 184.880104,27.2621017 186.263098,27.2621017 C188.016158,27.2621017 189.390597,25.9442119 189.498955,24.1782458 L188.861479,24.1782458 Z" id="Fill-26" fill="#000000"></path>
                        <path d="M129.041214,36.9999373 C130.976138,36.9999373 132.754861,35.6102424 132.754861,33.5075136 C132.754861,31.5775559 130.811066,30.1217 129.041214,30.1217 C127.269461,30.1217 125.570264,31.6437169 125.570264,33.5075136 C125.570264,35.550039 127.027714,36.9999373 129.041214,36.9999373" id="Fill-28" fill="#EA2227"></path>
                        <path d="M129.622261,26.8839805 C129.876681,15.3512686 131.598057,5.49014153 131.598057,4.03648051 C131.598057,2.16735339 130.816737,0.295717797 129.158095,0.295717797 C127.4947,0.295717797 126.723202,2.16735339 126.723202,4.03648051 C126.723202,5.49014153 128.438558,15.3512686 128.69583,26.8839805 L129.622261,26.8839805 Z" id="Fill-30" fill="#000000"></path>
                    </g>
                </g>
            </g>
        </g>
    </g>
</svg>